<svg xmlns="http://www.w3.org/2000/svg" width="193.62" height="50" viewBox="0 0 193.62 50"><g transform="translate(35 3574)"><path d="M115.089,34.684a1.513,1.513,0,0,0,.252-.919V19.66a1.514,1.514,0,0,0-.252-.919.8.8,0,0,0-.68-.34v-.5h3.854v.5a.987.987,0,0,0-.793.34,1.37,1.37,0,0,0-.29.919v6.347a.76.76,0,0,0,.151.491.516.516,0,0,0,.428.189h6.826a.553.553,0,0,0,.44-.189.723.723,0,0,0,.164-.491V19.66a1.334,1.334,0,0,0-.3-.919,1.024,1.024,0,0,0-.806-.34v-.5h3.879v.5a.835.835,0,0,0-.693.34,1.461,1.461,0,0,0-.264.919v14.1a1.46,1.46,0,0,0,.264.919.836.836,0,0,0,.693.34v.5h-3.879v-.5a1.026,1.026,0,0,0,.806-.34,1.334,1.334,0,0,0,.3-.919V27.871a.724.724,0,0,0-.164-.492.554.554,0,0,0-.44-.189h-6.826a.517.517,0,0,0-.428.189.761.761,0,0,0-.151.492v5.894a1.369,1.369,0,0,0,.29.919.988.988,0,0,0,.793.34v.5h-3.854v-.5a.8.8,0,0,0,.68-.34" transform="translate(-92.59 -3583.005)" fill="#535353"/><path d="M148.194,33.765a1.37,1.37,0,0,0,.29.919.988.988,0,0,0,.793.339h3.174a3.967,3.967,0,0,0,1.675-.352,4.338,4.338,0,0,0,1.359-.982,5.135,5.135,0,0,0,.97-1.511,6.967,6.967,0,0,0,.5-1.915h.428l-.529,5.264H145.272v-.5a1.026,1.026,0,0,0,.806-.339,1.332,1.332,0,0,0,.3-.919V19.659a1.332,1.332,0,0,0-.3-.919,1.026,1.026,0,0,0-.806-.34v-.5h11.586l.529,5.264h-.428a6.968,6.968,0,0,0-.5-1.914,5.135,5.135,0,0,0-.97-1.511,4.355,4.355,0,0,0-1.359-.982,3.968,3.968,0,0,0-1.675-.353h-3.174a.987.987,0,0,0-.793.34,1.369,1.369,0,0,0-.29.919v6.348a.76.76,0,0,0,.151.491.516.516,0,0,0,.428.189h2.594a2.234,2.234,0,0,0,1.776-.768,3.021,3.021,0,0,0,.667-2.053h.453v6.146h-.453a3.022,3.022,0,0,0-.667-2.053,2.236,2.236,0,0,0-1.776-.768h-2.594a.517.517,0,0,0-.428.189.763.763,0,0,0-.151.491Z" transform="translate(-108.126 -3583.005)" fill="#535353"/><path d="M173.886,33.661a.964.964,0,0,0-.025.831.7.7,0,0,0,.68.327v.5h-2.619v-.5a1.449,1.449,0,0,0,.919-.327,1.967,1.967,0,0,0,.617-.831l6.045-16.17h.2l6.045,16.17a1.971,1.971,0,0,0,.617.831,1.45,1.45,0,0,0,.919.327v.5H183.1v-.5a.7.7,0,0,0,.68-.327.965.965,0,0,0-.025-.831l-1.285-3.426a3.686,3.686,0,0,0-1.385-.843,4.985,4.985,0,0,0-1.612-.265,5.839,5.839,0,0,0-1.511.2,6.061,6.061,0,0,0-1.423.579,5.611,5.611,0,0,0-1.209.919,4.147,4.147,0,0,0-.844,1.2ZM178.8,20.513l-3.728,9.974a5.7,5.7,0,0,1,1.99-1.322,6.3,6.3,0,0,1,2.368-.466,5.619,5.619,0,0,1,1.461.189,4.086,4.086,0,0,1,1.31.617Z" transform="translate(-121.54 -3582.801)" fill="#535353"/><path d="M205.07,35.023a1.025,1.025,0,0,0,.806-.34,1.333,1.333,0,0,0,.3-.919v-14.1a1.335,1.335,0,0,0-.3-.919,1.027,1.027,0,0,0-.806-.34v-.5h4v.5a.987.987,0,0,0-.793.34,1.37,1.37,0,0,0-.29.919v14.1a1.368,1.368,0,0,0,.29.919.985.985,0,0,0,.793.34v.5h-4Zm4.03,0h3.173a3.96,3.96,0,0,0,1.675-.352,4.341,4.341,0,0,0,1.36-.982,5.149,5.149,0,0,0,.97-1.511,6.973,6.973,0,0,0,.5-1.915h.429l-.529,5.265H209.1Z" transform="translate(-138.227 -3583.005)" fill="#535353"/><path d="M225.426,17.9h12.719l-.378,4.483h-.428A4.193,4.193,0,0,0,236.9,19.5a2.7,2.7,0,0,0-2.481-1.1h-.63a1.024,1.024,0,0,0-.806.34,1.332,1.332,0,0,0-.3.919v14.1a1.331,1.331,0,0,0,.3.919,1.026,1.026,0,0,0,.806.34v.5h-4.005v-.5a.99.99,0,0,0,.794-.34,1.371,1.371,0,0,0,.289-.919V19.66a1.372,1.372,0,0,0-.289-.919.988.988,0,0,0-.794-.34h-.629a2.7,2.7,0,0,0-2.481,1.1,4.188,4.188,0,0,0-.441,2.883H225.8Z" transform="translate(-148.473 -3583.005)" fill="#535353"/><path d="M254.532,34.684a1.513,1.513,0,0,0,.252-.919V19.66a1.514,1.514,0,0,0-.252-.919.8.8,0,0,0-.68-.34v-.5h3.853v.5a.986.986,0,0,0-.793.34,1.37,1.37,0,0,0-.29.919v6.347a.759.759,0,0,0,.151.491.516.516,0,0,0,.428.189h6.826a.553.553,0,0,0,.44-.189.723.723,0,0,0,.164-.491V19.66a1.334,1.334,0,0,0-.3-.919,1.024,1.024,0,0,0-.806-.34v-.5H267.4v.5a.835.835,0,0,0-.693.34,1.461,1.461,0,0,0-.264.919v14.1a1.46,1.46,0,0,0,.264.919.836.836,0,0,0,.693.34v.5h-3.879v-.5a1.026,1.026,0,0,0,.806-.34,1.334,1.334,0,0,0,.3-.919V27.871a.724.724,0,0,0-.164-.492.554.554,0,0,0-.44-.189H257.2a.517.517,0,0,0-.428.189.76.76,0,0,0-.151.492v5.894a1.369,1.369,0,0,0,.29.919.988.988,0,0,0,.793.34v.5h-3.853v-.5a.8.8,0,0,0,.68-.34" transform="translate(-162.782 -3583.005)" fill="#535353"/><path d="M291.507,26.964v6.8a1.372,1.372,0,0,0,.289.919.988.988,0,0,0,.794.339v.5h-4.005v-.5a1.026,1.026,0,0,0,.806-.339,1.332,1.332,0,0,0,.3-.919V27.442l-4.66-8.009a2.11,2.11,0,0,0-.731-.756,1.807,1.807,0,0,0-.957-.277v-.5h4.282v.5q-.5,0-.63.277a.853.853,0,0,0,.151.756l4.08,6.977,3.8-6.951a.8.8,0,0,0,.126-.769.67.67,0,0,0-.655-.29v-.5h2.771v.5a1.692,1.692,0,0,0-.944.29,2.261,2.261,0,0,0-.718.769Z" transform="translate(-177.628 -3583.005)" fill="#535353"/><path d="M114.409,64.136h4v.5a1.026,1.026,0,0,0-.806.34,1.334,1.334,0,0,0-.3.919V80a1.334,1.334,0,0,0,.3.92,1.027,1.027,0,0,0,.806.34v.5h-4v-.5a.99.99,0,0,0,.794-.34,1.374,1.374,0,0,0,.289-.92V65.9a1.374,1.374,0,0,0-.289-.919.988.988,0,0,0-.794-.34Z" transform="translate(-92.593 -3606.271)" fill="#535353"/><path d="M138.122,81.766,127.342,66.05V80a1.334,1.334,0,0,0,.3.92,1.025,1.025,0,0,0,.806.339v.5h-2.619v-.5a.988.988,0,0,0,.793-.339,1.372,1.372,0,0,0,.29-.92V65.9a1.55,1.55,0,0,0-.2-.781l-.051-.075a1.027,1.027,0,0,0-.831-.4v-.5h2.342l9.949,14.482V65.9a1.334,1.334,0,0,0-.3-.919,1.026,1.026,0,0,0-.806-.34v-.5h2.619v.5a.987.987,0,0,0-.794.34,1.374,1.374,0,0,0-.289.919V81.766Z" transform="translate(-98.339 -3606.271)" fill="#535353"/><path d="M156.948,81.263a.989.989,0,0,0,.793-.34,1.371,1.371,0,0,0,.289-.919V65.9a1.371,1.371,0,0,0-.289-.919.988.988,0,0,0-.793-.34v-.5h5.617a6.13,6.13,0,0,1,3.035.831,6.9,6.9,0,0,1,2.153,2.027,9.228,9.228,0,0,1,1.285,2.821,11.9,11.9,0,0,1,.416,3.224A12.13,12.13,0,0,1,169,76.25a8.951,8.951,0,0,1-1.322,2.8,6.725,6.725,0,0,1-2.2,1.977,6.191,6.191,0,0,1-3.085.743h-5.441Zm4-16.623a1.025,1.025,0,0,0-.806.34,1.333,1.333,0,0,0-.3.919V80a1.334,1.334,0,0,0,.3.919,1.026,1.026,0,0,0,.806.34h1.461a3.45,3.45,0,0,0,2.166-.717,5.818,5.818,0,0,0,1.561-1.889A9.624,9.624,0,0,0,167.073,76a15.546,15.546,0,0,0,0-6.1,9.642,9.642,0,0,0-.932-2.657,5.816,5.816,0,0,0-1.561-1.889,3.448,3.448,0,0,0-2.166-.718Z" transform="translate(-114.003 -3606.271)" fill="#535353"/><path d="M199.079,74.564a14.353,14.353,0,0,1-.315,3.123,6.987,6.987,0,0,1-1.007,2.43,4.716,4.716,0,0,1-1.826,1.587,6.09,6.09,0,0,1-2.745.567,5.771,5.771,0,0,1-4.774-1.889,8.305,8.305,0,0,1-1.523-5.34V65.9a1.333,1.333,0,0,0-.3-.919,1.026,1.026,0,0,0-.806-.34v-.5h3.954v.5a.987.987,0,0,0-.793.34,1.368,1.368,0,0,0-.29.919v8.639q0,.479.025,1.209a11.186,11.186,0,0,0,.164,1.536,9.847,9.847,0,0,0,.417,1.6,4.951,4.951,0,0,0,.782,1.436,3.745,3.745,0,0,0,3.131,1.448,5.637,5.637,0,0,0,2.676-.567,4.386,4.386,0,0,0,1.692-1.586,6.7,6.7,0,0,0,.871-2.406,17.865,17.865,0,0,0,.241-3.047V65.9a1.331,1.331,0,0,0-.3-.919,1.026,1.026,0,0,0-.806-.34v-.5h2.645v.5a1.026,1.026,0,0,0-.806.34,1.333,1.333,0,0,0-.3.919Z" transform="translate(-128.516 -3606.271)" fill="#535353"/><path d="M218.116,81.263a1.027,1.027,0,0,0,.806-.34,1.333,1.333,0,0,0,.3-.919V65.9a1.333,1.333,0,0,0-.3-.919,1.026,1.026,0,0,0-.806-.34v-.5h4v.5a.985.985,0,0,0-.793.34,1.368,1.368,0,0,0-.29.919V80a1.369,1.369,0,0,0,.29.919.986.986,0,0,0,.793.34v.5h-4Zm4.03,0h3.174a3.967,3.967,0,0,0,1.675-.352,4.336,4.336,0,0,0,1.36-.982,5.136,5.136,0,0,0,.97-1.511,6.971,6.971,0,0,0,.5-1.915h.429l-.529,5.264h-7.581Z" transform="translate(-144.794 -3606.271)" fill="#535353"/><path d="M257.544,79.516a6.936,6.936,0,0,1-1.964,1.6,5.261,5.261,0,0,1-2.594.643,5.859,5.859,0,0,1-3.11-.806,7.19,7.19,0,0,1-2.216-2.116,9.551,9.551,0,0,1-1.335-2.985,13.425,13.425,0,0,1,0-6.826,9.551,9.551,0,0,1,1.335-2.984,7.2,7.2,0,0,1,2.216-2.116,5.863,5.863,0,0,1,3.11-.806,5.244,5.244,0,0,1,1.927.34,5.767,5.767,0,0,1,1.574.919,4.884,4.884,0,0,0,.542.34,1.293,1.293,0,0,0,.617.189.635.635,0,0,0,.58-.277,3.39,3.39,0,0,0,.3-.6h.151v5.188h-.3a10.936,10.936,0,0,0-.706-2.254,6.648,6.648,0,0,0-1.121-1.763,4.8,4.8,0,0,0-1.561-1.159,4.692,4.692,0,0,0-2-.415,3.337,3.337,0,0,0-2.166.755,5.887,5.887,0,0,0-1.549,2,11.354,11.354,0,0,0-.932,2.821,16.831,16.831,0,0,0,0,6.473,11.33,11.33,0,0,0,.932,2.821,5.88,5.88,0,0,0,1.549,2,3.337,3.337,0,0,0,2.166.756A4.949,4.949,0,0,0,255.5,80.6a5.822,5.822,0,0,0,1.864-1.688V73.321a1.374,1.374,0,0,0-.29-.919.988.988,0,0,0-.794-.34v-.5h3.979v.5a.986.986,0,0,0-.793.34,1.368,1.368,0,0,0-.29.919v5.037a2.03,2.03,0,0,0-.567.151,1.718,1.718,0,0,0-.378.239,2.08,2.08,0,0,0-.315.34,4.1,4.1,0,0,1-.378.428" transform="translate(-158.769 -3605.759)" fill="#535353"/><path d="M279.566,80a1.371,1.371,0,0,0,.29.92.988.988,0,0,0,.793.339h3.174a3.967,3.967,0,0,0,1.675-.352,4.339,4.339,0,0,0,1.359-.982,5.125,5.125,0,0,0,.97-1.511,6.973,6.973,0,0,0,.5-1.915h.428l-.529,5.264H276.644v-.5a1.027,1.027,0,0,0,.806-.339,1.333,1.333,0,0,0,.3-.92V65.9a1.331,1.331,0,0,0-.3-.919,1.026,1.026,0,0,0-.806-.34v-.5H288.23l.529,5.263h-.428a6.975,6.975,0,0,0-.5-1.914,5.131,5.131,0,0,0-.97-1.511,4.346,4.346,0,0,0-1.359-.982,3.967,3.967,0,0,0-1.675-.353h-3.174a.987.987,0,0,0-.793.34,1.368,1.368,0,0,0-.29.919v6.347a.762.762,0,0,0,.151.491.516.516,0,0,0,.428.189h2.594a2.233,2.233,0,0,0,1.776-.769,3.02,3.02,0,0,0,.667-2.052h.453v6.146h-.453a3.022,3.022,0,0,0-.667-2.053,2.236,2.236,0,0,0-1.776-.769h-2.594a.516.516,0,0,0-.428.189.763.763,0,0,0-.151.491Z" transform="translate(-174.255 -3606.271)" fill="#535353"/><path d="M316.752,81.766,305.972,66.05V80a1.334,1.334,0,0,0,.3.92,1.025,1.025,0,0,0,.806.339v.5h-2.619v-.5a.988.988,0,0,0,.793-.339,1.372,1.372,0,0,0,.29-.92V65.9a1.549,1.549,0,0,0-.2-.781l-.051-.075a1.027,1.027,0,0,0-.831-.4v-.5H306.8l9.949,14.482V65.9a1.334,1.334,0,0,0-.3-.919,1.026,1.026,0,0,0-.806-.34v-.5h2.619v.5a.987.987,0,0,0-.794.34,1.374,1.374,0,0,0-.289.919V81.766Z" transform="translate(-188.23 -3606.271)" fill="#535353"/><path d="M342.681,81.759a5.861,5.861,0,0,1-3.111-.806,7.187,7.187,0,0,1-2.216-2.116,9.543,9.543,0,0,1-1.335-2.984,13.439,13.439,0,0,1,0-6.826,9.553,9.553,0,0,1,1.335-2.984,7.2,7.2,0,0,1,2.216-2.116,5.866,5.866,0,0,1,3.111-.806,5.369,5.369,0,0,1,1.8.29,5.277,5.277,0,0,1,1.474.793,3.138,3.138,0,0,0,.478.353,4.306,4.306,0,0,0,.441.24,1.039,1.039,0,0,0,.441.113.629.629,0,0,0,.592-.277,4.057,4.057,0,0,0,.29-.6h.151v5.188h-.277a10.911,10.911,0,0,0-.706-2.254,6.477,6.477,0,0,0-1.133-1.763,5,5,0,0,0-1.561-1.159,4.608,4.608,0,0,0-1.99-.415,3.334,3.334,0,0,0-2.166.756,6.017,6.017,0,0,0-1.562,2,10.736,10.736,0,0,0-.932,2.821,17.511,17.511,0,0,0,0,6.473,10.727,10.727,0,0,0,.932,2.821,6.024,6.024,0,0,0,1.562,2,3.337,3.337,0,0,0,2.166.755,4.879,4.879,0,0,0,2.065-.441,5.739,5.739,0,0,0,1.675-1.159,6.2,6.2,0,0,0,1.171-1.625,5.382,5.382,0,0,0,.555-1.838.688.688,0,0,1,.025-.189.229.229,0,0,1,.151-.138l.327,1.033a7.564,7.564,0,0,1-.768,1.726,6.709,6.709,0,0,1-1.284,1.561,6.6,6.6,0,0,1-1.763,1.133,5.259,5.259,0,0,1-2.153.441" transform="translate(-203.908 -3605.759)" fill="#535353"/><path d="M368.4,80a1.371,1.371,0,0,0,.29.92.988.988,0,0,0,.793.339h3.174a3.968,3.968,0,0,0,1.675-.352,4.339,4.339,0,0,0,1.359-.982,5.125,5.125,0,0,0,.97-1.511,6.969,6.969,0,0,0,.5-1.915h.428l-.529,5.264H365.476v-.5a1.027,1.027,0,0,0,.806-.339,1.334,1.334,0,0,0,.3-.92V65.9a1.331,1.331,0,0,0-.3-.919,1.026,1.026,0,0,0-.806-.34v-.5h11.586l.529,5.263h-.428a6.97,6.97,0,0,0-.5-1.914,5.132,5.132,0,0,0-.97-1.511,4.347,4.347,0,0,0-1.359-.982,3.968,3.968,0,0,0-1.675-.353h-3.174a.987.987,0,0,0-.793.34,1.368,1.368,0,0,0-.29.919v6.347a.762.762,0,0,0,.151.491.516.516,0,0,0,.428.189h2.594a2.233,2.233,0,0,0,1.776-.769,3.02,3.02,0,0,0,.667-2.052h.453v6.146h-.453a3.021,3.021,0,0,0-.667-2.053,2.236,2.236,0,0,0-1.776-.769h-2.594a.516.516,0,0,0-.428.189.763.763,0,0,0-.151.491Z" transform="translate(-218.971 -3606.271)" fill="#535353"/><path d="M36.651,49.429a.821.821,0,0,1-.819-.892,8.792,8.792,0,0,1,.24-1.381A9.144,9.144,0,0,0,34.8,40.674,10.588,10.588,0,0,0,28.93,36.74a5.6,5.6,0,0,0-.213,1.027.821.821,0,1,1-1.631-.188,6.731,6.731,0,0,1,.6-2.157.818.818,0,0,1,.876-.453,12.425,12.425,0,0,1,7.587,4.774,9.661,9.661,0,0,1,1.544,4,6.268,6.268,0,0,1,4.569-2.483.836.836,0,0,1,.623.215.822.822,0,0,1,.264.6c0,.176-.037,4.344-3.27,6.3a.821.821,0,0,1-.848-1.4,5.612,5.612,0,0,0,2.368-3.9c-2.412.692-3.362,3.032-3.724,4.464-.058.407-.132.823-.225,1.245a.821.821,0,0,1-.8.646" transform="translate(-48.644 -3591.592)" fill="#9ec42c"/><path d="M34.122,55.892a.83.83,0,0,1-.28-.049,10.208,10.208,0,0,1-6.3-7.716.821.821,0,0,1,1.622-.247A8.646,8.646,0,0,0,34.4,54.3a.821.821,0,0,1-.28,1.592" transform="translate(-48.873 -3597.748)" fill="#9ec42c"/><path d="M58.373,42.076a1.042,1.042,0,1,1-1.042-1.042,1.042,1.042,0,0,1,1.042,1.042" transform="translate(-63.36 -3594.656)" fill="#9ec42c"/><path d="M58.084,17.934a.818.818,0,0,1-.633-.3A18.449,18.449,0,0,0,43.179,10.9c-.236,0-.471,0-.7.013a.821.821,0,0,1-.064-1.64c.255-.01.512-.014.769-.014A20.082,20.082,0,0,1,58.717,16.59a.82.82,0,0,1-.633,1.343" transform="translate(-55.97 -3578.667)" fill="#329a3e"/><path d="M76.089,23.373a3.206,3.206,0,0,1-.322-.017,3.085,3.085,0,0,1-2.095-1.131.821.821,0,1,1,1.274-1.036,1.468,1.468,0,0,0,2.277-1.854A.821.821,0,1,1,78.5,18.3a3.11,3.11,0,0,1-2.408,5.072" transform="translate(-71.993 -3583.059)" fill="#329a3e"/><path d="M.82,14.848A.821.821,0,0,1,.087,13.66,24.738,24.738,0,0,1,41.479,9.23.82.82,0,1,1,40.2,10.259,23.1,23.1,0,0,0,1.554,14.4a.821.821,0,0,1-.734.453" transform="translate(-34.999 -3574)" fill="#329a3e"/><path d="M28.791,81.627A20.085,20.085,0,0,1,13.253,74.3a.821.821,0,0,1,1.266-1.045,18.447,18.447,0,0,0,14.272,6.732c.237,0,.473-.005.708-.014a.821.821,0,0,1,.058,1.641c-.254.008-.509.014-.766.014" transform="translate(-41.582 -3610.714)" fill="#329a3e"/><path d="M5.867,76.242a.822.822,0,0,1-.638-.3,3.11,3.11,0,0,1,4.825-3.926A.821.821,0,1,1,8.782,73.05a1.472,1.472,0,0,0-2.067-.211A1.466,1.466,0,0,0,6.5,74.9a.821.821,0,0,1-.637,1.339" transform="translate(-37.283 -3609.672)" fill="#329a3e"/><path d="M25.007,84.615A24.635,24.635,0,0,1,5.736,75.386a.821.821,0,0,1,1.278-1.03,23.1,23.1,0,0,0,38.647-4.136.821.821,0,1,1,1.468.735,24.621,24.621,0,0,1-22.122,13.66" transform="translate(-37.798 -3609.107)" fill="#329a3e"/><path d="M28.157,49.638A16.372,16.372,0,1,1,44.508,33.266,16.277,16.277,0,0,1,28.157,49.638M16.7,42.5a14.733,14.733,0,1,0-3.247-9.231A14.645,14.645,0,0,0,16.7,42.5" transform="translate(-40.948 -3582.511)" fill="#39ad3f"/></g></svg>