<svg xmlns="http://www.w3.org/2000/svg" width="228.489" height="59.004" viewBox="0 0 228.489 59.004"><g transform="translate(0)"><path d="M115.212,37.724a1.787,1.787,0,0,0,.3-1.086V19.979a1.788,1.788,0,0,0-.3-1.086.949.949,0,0,0-.8-.4V17.9h4.552v.595a1.165,1.165,0,0,0-.937.4,1.618,1.618,0,0,0-.342,1.086v7.5a.9.9,0,0,0,.179.58.61.61,0,0,0,.506.223h8.062a.653.653,0,0,0,.52-.223.854.854,0,0,0,.193-.58v-7.5a1.576,1.576,0,0,0-.357-1.086,1.21,1.21,0,0,0-.952-.4V17.9h4.581v.595a.986.986,0,0,0-.818.4,1.726,1.726,0,0,0-.312,1.086V36.638a1.725,1.725,0,0,0,.312,1.086.988.988,0,0,0,.818.4v.595h-4.581v-.595a1.212,1.212,0,0,0,.952-.4,1.575,1.575,0,0,0,.357-1.086V29.677a.855.855,0,0,0-.193-.581.654.654,0,0,0-.52-.223h-8.062a.611.611,0,0,0-.506.223.9.9,0,0,0-.179.581v6.961a1.617,1.617,0,0,0,.342,1.086,1.167,1.167,0,0,0,.937.4v.595h-4.552v-.595a.95.95,0,0,0,.8-.4" transform="translate(-47.362 -7.409)" fill="#fff"/><path d="M148.723,36.638a1.618,1.618,0,0,0,.342,1.086,1.167,1.167,0,0,0,.937.4h3.748a4.686,4.686,0,0,0,1.978-.416,5.123,5.123,0,0,0,1.606-1.16,6.064,6.064,0,0,0,1.146-1.785,8.229,8.229,0,0,0,.595-2.261h.506l-.625,6.218H145.272v-.6a1.212,1.212,0,0,0,.952-.4,1.573,1.573,0,0,0,.357-1.086V19.979a1.573,1.573,0,0,0-.357-1.085,1.211,1.211,0,0,0-.952-.4V17.9h13.684l.625,6.217h-.506a8.23,8.23,0,0,0-.595-2.261,6.064,6.064,0,0,0-1.146-1.785,5.144,5.144,0,0,0-1.606-1.16,4.686,4.686,0,0,0-1.978-.417H150a1.166,1.166,0,0,0-.937.4,1.617,1.617,0,0,0-.342,1.085v7.5a.9.9,0,0,0,.179.58.61.61,0,0,0,.506.223h3.064a2.639,2.639,0,0,0,2.1-.907,3.569,3.569,0,0,0,.788-2.424h.535v7.259h-.535a3.57,3.57,0,0,0-.788-2.424,2.641,2.641,0,0,0-2.1-.907h-3.064a.611.611,0,0,0-.506.223.9.9,0,0,0-.179.58Z" transform="translate(-60.138 -7.409)" fill="#fff"/><path d="M174.242,36.589a1.138,1.138,0,0,0-.03.982.826.826,0,0,0,.8.386v.6h-3.094v-.6a1.712,1.712,0,0,0,1.085-.386,2.323,2.323,0,0,0,.729-.982l7.14-19.1h.238l7.14,19.1a2.328,2.328,0,0,0,.729.982,1.712,1.712,0,0,0,1.086.386v.6H185.13v-.6a.829.829,0,0,0,.8-.386,1.14,1.14,0,0,0-.03-.982l-1.517-4.046a4.353,4.353,0,0,0-1.636-1,5.887,5.887,0,0,0-1.9-.313,6.9,6.9,0,0,0-1.785.239,7.159,7.159,0,0,0-1.681.684,6.627,6.627,0,0,0-1.428,1.086,4.9,4.9,0,0,0-1,1.413Zm5.8-15.529-4.4,11.78a6.734,6.734,0,0,1,2.351-1.562,7.434,7.434,0,0,1,2.8-.551,6.636,6.636,0,0,1,1.725.223,4.826,4.826,0,0,1,1.547.729Z" transform="translate(-71.17 -7.241)" fill="#fff"/><path d="M205.07,38.125a1.211,1.211,0,0,0,.952-.4,1.574,1.574,0,0,0,.356-1.085V19.979a1.577,1.577,0,0,0-.356-1.086,1.213,1.213,0,0,0-.952-.4V17.9h4.73v.595a1.165,1.165,0,0,0-.936.4,1.618,1.618,0,0,0-.342,1.086V36.638a1.616,1.616,0,0,0,.342,1.085,1.163,1.163,0,0,0,.936.4v.6h-4.73Zm4.76,0h3.748a4.677,4.677,0,0,0,1.978-.416,5.127,5.127,0,0,0,1.606-1.16,6.082,6.082,0,0,0,1.146-1.784A8.237,8.237,0,0,0,218.9,32.5h.506l-.625,6.218H209.83Z" transform="translate(-84.893 -7.408)" fill="#fff"/><path d="M225.426,17.9h15.023L240,23.192H239.5a4.953,4.953,0,0,0-.52-3.405,3.192,3.192,0,0,0-2.93-1.295H235.3a1.21,1.21,0,0,0-.952.4,1.573,1.573,0,0,0-.358,1.086V36.638a1.572,1.572,0,0,0,.358,1.086,1.212,1.212,0,0,0,.952.4v.595h-4.73v-.595a1.169,1.169,0,0,0,.938-.4,1.619,1.619,0,0,0,.342-1.086V19.979a1.62,1.62,0,0,0-.342-1.086,1.167,1.167,0,0,0-.938-.4h-.743a3.189,3.189,0,0,0-2.93,1.295,4.946,4.946,0,0,0-.521,3.405h-.506Z" transform="translate(-93.32 -7.409)" fill="#fff"/><path d="M254.655,37.724a1.787,1.787,0,0,0,.3-1.086V19.979a1.788,1.788,0,0,0-.3-1.086.949.949,0,0,0-.8-.4V17.9H258.4v.595a1.165,1.165,0,0,0-.936.4,1.618,1.618,0,0,0-.342,1.086v7.5a.9.9,0,0,0,.179.58.61.61,0,0,0,.506.223h8.062a.653.653,0,0,0,.52-.223.854.854,0,0,0,.193-.58v-7.5a1.576,1.576,0,0,0-.357-1.086,1.21,1.21,0,0,0-.952-.4V17.9h4.581v.595a.986.986,0,0,0-.818.4,1.726,1.726,0,0,0-.312,1.086V36.638a1.725,1.725,0,0,0,.312,1.086.988.988,0,0,0,.818.4v.595h-4.581v-.595a1.212,1.212,0,0,0,.952-.4,1.575,1.575,0,0,0,.357-1.086V29.677a.855.855,0,0,0-.193-.581.654.654,0,0,0-.52-.223h-8.062a.611.611,0,0,0-.506.223.9.9,0,0,0-.179.581v6.961a1.617,1.617,0,0,0,.342,1.086,1.167,1.167,0,0,0,.936.4v.595h-4.551v-.595a.95.95,0,0,0,.8-.4" transform="translate(-105.087 -7.409)" fill="#fff"/><path d="M292.984,28.606v8.032a1.621,1.621,0,0,0,.342,1.086,1.167,1.167,0,0,0,.938.4v.6h-4.73v-.6a1.211,1.211,0,0,0,.952-.4,1.573,1.573,0,0,0,.357-1.086V29.171l-5.5-9.46a2.493,2.493,0,0,0-.863-.893,2.135,2.135,0,0,0-1.13-.328V17.9H288.4v.594q-.6,0-.744.328a1.007,1.007,0,0,0,.179.893l4.819,8.24,4.492-8.21a.949.949,0,0,0,.149-.908.792.792,0,0,0-.774-.342V17.9H299.8v.594a2,2,0,0,0-1.115.342,2.67,2.67,0,0,0-.849.908Z" transform="translate(-117.297 -7.409)" fill="#fff"/><path d="M114.409,64.136h4.73v.595a1.211,1.211,0,0,0-.952.4,1.575,1.575,0,0,0-.357,1.086V82.877a1.576,1.576,0,0,0,.357,1.086,1.213,1.213,0,0,0,.952.4v.595h-4.73v-.595a1.169,1.169,0,0,0,.938-.4,1.623,1.623,0,0,0,.342-1.086V66.218a1.623,1.623,0,0,0-.342-1.086,1.167,1.167,0,0,0-.938-.4Z" transform="translate(-47.362 -26.55)" fill="#fff"/><path d="M140.348,84.959,127.615,66.4v16.48a1.576,1.576,0,0,0,.357,1.086,1.211,1.211,0,0,0,.952.4v.6h-3.094v-.6a1.167,1.167,0,0,0,.937-.4,1.62,1.62,0,0,0,.342-1.086V66.218a1.83,1.83,0,0,0-.238-.922l-.06-.089a1.213,1.213,0,0,0-.982-.476v-.594H128.6l11.75,17.1V66.218a1.575,1.575,0,0,0-.357-1.086,1.212,1.212,0,0,0-.952-.4v-.594h3.094v.594a1.166,1.166,0,0,0-.938.4,1.623,1.623,0,0,0-.342,1.086V84.959Z" transform="translate(-52.09 -26.55)" fill="#fff"/><path d="M156.948,84.365a1.168,1.168,0,0,0,.937-.4,1.619,1.619,0,0,0,.342-1.086V66.218a1.619,1.619,0,0,0-.342-1.085,1.167,1.167,0,0,0-.937-.4v-.595h6.634a7.24,7.24,0,0,1,3.585.982,8.149,8.149,0,0,1,2.543,2.395,10.9,10.9,0,0,1,1.517,3.332,14.059,14.059,0,0,1,.491,3.808,14.327,14.327,0,0,1-.536,3.792,10.572,10.572,0,0,1-1.562,3.3,7.943,7.943,0,0,1-2.6,2.335,7.312,7.312,0,0,1-3.644.878h-6.426Zm4.73-19.634a1.21,1.21,0,0,0-.952.4,1.575,1.575,0,0,0-.357,1.085V82.877a1.575,1.575,0,0,0,.357,1.086,1.212,1.212,0,0,0,.952.4H163.4a4.075,4.075,0,0,0,2.559-.847,6.872,6.872,0,0,0,1.844-2.232,11.367,11.367,0,0,0,1.1-3.138,18.361,18.361,0,0,0,0-7.2,11.387,11.387,0,0,0-1.1-3.138,6.869,6.869,0,0,0-1.844-2.231,4.072,4.072,0,0,0-2.559-.848Z" transform="translate(-64.972 -26.55)" fill="#fff"/><path d="M201.487,76.452a16.952,16.952,0,0,1-.372,3.688,8.253,8.253,0,0,1-1.19,2.87,5.57,5.57,0,0,1-2.157,1.875,7.194,7.194,0,0,1-3.243.669q-3.839,0-5.638-2.231a9.809,9.809,0,0,1-1.8-6.307v-10.8a1.575,1.575,0,0,0-.357-1.085,1.211,1.211,0,0,0-.952-.4v-.595h4.671v.595a1.166,1.166,0,0,0-.937.4,1.616,1.616,0,0,0-.342,1.085v10.2q0,.565.03,1.428a13.213,13.213,0,0,0,.194,1.814,11.631,11.631,0,0,0,.492,1.889,5.848,5.848,0,0,0,.924,1.7,4.423,4.423,0,0,0,3.7,1.711,6.658,6.658,0,0,0,3.161-.67,5.18,5.18,0,0,0,2-1.874,7.911,7.911,0,0,0,1.028-2.842,21.1,21.1,0,0,0,.284-3.6V66.218a1.572,1.572,0,0,0-.357-1.085,1.211,1.211,0,0,0-.952-.4v-.595H202.8v.595a1.212,1.212,0,0,0-.952.4,1.575,1.575,0,0,0-.357,1.085Z" transform="translate(-76.907 -26.55)" fill="#fff"/><path d="M218.116,84.365a1.213,1.213,0,0,0,.952-.4,1.575,1.575,0,0,0,.356-1.086V66.218a1.574,1.574,0,0,0-.356-1.085,1.211,1.211,0,0,0-.952-.4v-.595h4.73v.595a1.164,1.164,0,0,0-.936.4,1.616,1.616,0,0,0-.342,1.085V82.877a1.617,1.617,0,0,0,.342,1.086,1.165,1.165,0,0,0,.936.4v.6h-4.73Zm4.76,0h3.748a4.686,4.686,0,0,0,1.978-.416,5.121,5.121,0,0,0,1.606-1.16A6.066,6.066,0,0,0,231.354,81a8.234,8.234,0,0,0,.594-2.262h.506l-.625,6.218h-8.954Z" transform="translate(-90.293 -26.55)" fill="#fff"/><path d="M259.656,82.486a8.192,8.192,0,0,1-2.32,1.889,6.213,6.213,0,0,1-3.064.759,6.92,6.92,0,0,1-3.674-.952,8.492,8.492,0,0,1-2.618-2.5,11.28,11.28,0,0,1-1.576-3.526,15.856,15.856,0,0,1,0-8.062,11.28,11.28,0,0,1,1.576-3.524,8.507,8.507,0,0,1,2.618-2.5,6.925,6.925,0,0,1,3.674-.952,6.194,6.194,0,0,1,2.276.4,6.812,6.812,0,0,1,1.859,1.085,5.766,5.766,0,0,0,.64.4,1.527,1.527,0,0,0,.728.223.751.751,0,0,0,.685-.328,4.006,4.006,0,0,0,.357-.714h.179v6.128h-.357a12.918,12.918,0,0,0-.833-2.662,7.852,7.852,0,0,0-1.324-2.082,5.674,5.674,0,0,0-1.844-1.368,5.542,5.542,0,0,0-2.365-.491,3.941,3.941,0,0,0-2.558.892,6.954,6.954,0,0,0-1.83,2.365,13.412,13.412,0,0,0-1.1,3.332,19.879,19.879,0,0,0,0,7.645,13.383,13.383,0,0,0,1.1,3.332,6.945,6.945,0,0,0,1.83,2.365,3.942,3.942,0,0,0,2.558.893,5.845,5.845,0,0,0,2.975-.773,6.876,6.876,0,0,0,2.2-1.994v-6.6a1.623,1.623,0,0,0-.342-1.086,1.168,1.168,0,0,0-.938-.4v-.6h4.7v.6a1.164,1.164,0,0,0-.936.4,1.616,1.616,0,0,0-.342,1.086v5.949a2.4,2.4,0,0,0-.669.179,2.029,2.029,0,0,0-.447.282,2.457,2.457,0,0,0-.372.4,4.841,4.841,0,0,1-.447.505" transform="translate(-101.788 -26.13)" fill="#fff"/><path d="M280.1,82.878a1.619,1.619,0,0,0,.342,1.087,1.167,1.167,0,0,0,.937.4h3.748a4.686,4.686,0,0,0,1.978-.416,5.125,5.125,0,0,0,1.606-1.16A6.053,6.053,0,0,0,289.853,81a8.236,8.236,0,0,0,.595-2.261h.506l-.625,6.218H276.644v-.6a1.213,1.213,0,0,0,.952-.4,1.575,1.575,0,0,0,.357-1.087V66.219a1.572,1.572,0,0,0-.357-1.085,1.211,1.211,0,0,0-.952-.4v-.594h13.684l.625,6.217h-.506a8.238,8.238,0,0,0-.595-2.261,6.061,6.061,0,0,0-1.146-1.784,5.134,5.134,0,0,0-1.606-1.16,4.686,4.686,0,0,0-1.978-.417h-3.748a1.166,1.166,0,0,0-.937.4,1.616,1.616,0,0,0-.342,1.085v7.5a.9.9,0,0,0,.179.58.61.61,0,0,0,.506.223h3.064a2.638,2.638,0,0,0,2.1-.908,3.567,3.567,0,0,0,.788-2.424h.535v7.259h-.535a3.569,3.569,0,0,0-.788-2.424,2.641,2.641,0,0,0-2.1-.908H280.78a.61.61,0,0,0-.506.223.9.9,0,0,0-.179.58Z" transform="translate(-114.522 -26.551)" fill="#fff"/><path d="M318.978,84.959,306.245,66.4v16.48a1.575,1.575,0,0,0,.358,1.086,1.211,1.211,0,0,0,.952.4v.6h-3.094v-.6a1.167,1.167,0,0,0,.937-.4,1.62,1.62,0,0,0,.342-1.086V66.218a1.83,1.83,0,0,0-.238-.922l-.06-.089a1.213,1.213,0,0,0-.982-.476v-.594h2.767l11.751,17.1V66.218a1.575,1.575,0,0,0-.357-1.086,1.212,1.212,0,0,0-.952-.4v-.594h3.094v.594a1.166,1.166,0,0,0-.938.4,1.623,1.623,0,0,0-.342,1.086V84.959Z" transform="translate(-126.038 -26.55)" fill="#fff"/><path d="M343.967,85.135a6.923,6.923,0,0,1-3.674-.952,8.489,8.489,0,0,1-2.617-2.5,11.272,11.272,0,0,1-1.577-3.525,15.873,15.873,0,0,1,0-8.062,11.284,11.284,0,0,1,1.577-3.525,8.5,8.5,0,0,1,2.617-2.5,6.928,6.928,0,0,1,3.674-.952,6.341,6.341,0,0,1,2.127.342,6.234,6.234,0,0,1,1.741.936,3.705,3.705,0,0,0,.565.417,5.087,5.087,0,0,0,.521.283,1.227,1.227,0,0,0,.52.134.743.743,0,0,0,.7-.328,4.79,4.79,0,0,0,.342-.714h.179V70.32h-.328a12.886,12.886,0,0,0-.833-2.662,7.65,7.65,0,0,0-1.339-2.083,5.9,5.9,0,0,0-1.844-1.368,5.442,5.442,0,0,0-2.35-.491,3.938,3.938,0,0,0-2.558.893,7.107,7.107,0,0,0-1.845,2.365,12.681,12.681,0,0,0-1.1,3.332,20.683,20.683,0,0,0,0,7.645,12.67,12.67,0,0,0,1.1,3.332,7.115,7.115,0,0,0,1.845,2.365,3.941,3.941,0,0,0,2.558.892,5.763,5.763,0,0,0,2.439-.52,6.779,6.779,0,0,0,1.978-1.368,7.317,7.317,0,0,0,1.383-1.919,6.356,6.356,0,0,0,.655-2.171.812.812,0,0,1,.029-.223.27.27,0,0,1,.179-.163l.386,1.22a8.933,8.933,0,0,1-.907,2.038,7.924,7.924,0,0,1-1.517,1.844,7.8,7.8,0,0,1-2.083,1.339,6.212,6.212,0,0,1-2.543.521" transform="translate(-138.919 -26.13)" fill="#fff"/><path d="M368.927,82.878a1.619,1.619,0,0,0,.342,1.087,1.167,1.167,0,0,0,.937.4h3.748a4.686,4.686,0,0,0,1.978-.416,5.125,5.125,0,0,0,1.606-1.16A6.053,6.053,0,0,0,378.685,81a8.232,8.232,0,0,0,.595-2.261h.506l-.625,6.218H365.476v-.6a1.213,1.213,0,0,0,.952-.4,1.575,1.575,0,0,0,.357-1.087V66.219a1.572,1.572,0,0,0-.357-1.085,1.212,1.212,0,0,0-.952-.4v-.594H379.16l.625,6.217h-.506a8.233,8.233,0,0,0-.595-2.261,6.061,6.061,0,0,0-1.146-1.784,5.134,5.134,0,0,0-1.606-1.16,4.686,4.686,0,0,0-1.978-.417h-3.748a1.166,1.166,0,0,0-.937.4,1.616,1.616,0,0,0-.342,1.085v7.5a.9.9,0,0,0,.179.58.61.61,0,0,0,.506.223h3.064a2.638,2.638,0,0,0,2.1-.908,3.567,3.567,0,0,0,.788-2.424h.535v7.259h-.535a3.569,3.569,0,0,0-.788-2.424,2.641,2.641,0,0,0-2.1-.908h-3.064a.61.61,0,0,0-.506.223.9.9,0,0,0-.179.58Z" transform="translate(-151.296 -26.551)" fill="#fff"/><path d="M38.384,52.05A.97.97,0,0,1,37.417,51a10.384,10.384,0,0,1,.284-1.631,10.8,10.8,0,0,0-1.5-7.656,12.505,12.505,0,0,0-6.932-4.646,6.612,6.612,0,0,0-.251,1.213.97.97,0,1,1-1.926-.222,7.95,7.95,0,0,1,.711-2.547.966.966,0,0,1,1.035-.535c.237.04,5.851,1.036,8.961,5.638a11.411,11.411,0,0,1,1.823,4.725,7.4,7.4,0,0,1,5.4-2.932.987.987,0,0,1,.736.254.971.971,0,0,1,.312.713c0,.208-.044,5.131-3.863,7.44a.969.969,0,0,1-1-1.659,6.629,6.629,0,0,0,2.8-4.6c-2.849.817-3.971,3.581-4.4,5.273-.069.481-.156.972-.266,1.47a.969.969,0,0,1-.946.762" transform="translate(-11.211 -14.471)" fill="#fff"/><path d="M35.314,57.47a.981.981,0,0,1-.331-.058c-.261-.095-6.414-2.4-7.436-9.113a.969.969,0,0,1,1.916-.292c.851,5.584,6.129,7.563,6.182,7.583a.969.969,0,0,1-.331,1.881" transform="translate(-11.399 -19.532)" fill="#fff"/><path d="M58.75,42.265a1.231,1.231,0,1,1-1.231-1.231,1.231,1.231,0,0,1,1.231,1.231" transform="translate(-23.302 -16.987)" fill="#fff"/><path d="M61.066,19.5a.966.966,0,0,1-.747-.352A21.79,21.79,0,0,0,43.461,11.2c-.278,0-.556,0-.832.016a.969.969,0,0,1-.076-1.937c.3-.012.6-.017.908-.017a23.719,23.719,0,0,1,18.352,8.654.969.969,0,0,1-.747,1.586" transform="translate(-17.23 -3.834)" fill="#fff"/><path d="M76.56,24.346a3.787,3.787,0,0,1-.381-.02A3.644,3.644,0,0,1,73.7,22.991a.969.969,0,1,1,1.5-1.223,1.734,1.734,0,0,0,2.69-2.189.97.97,0,1,1,1.5-1.223,3.673,3.673,0,0,1-2.844,5.991" transform="translate(-30.421 -7.45)" fill="#fff"/><path d="M.968,17.538a.97.97,0,0,1-.866-1.4A29.219,29.219,0,0,1,48.991,10.9a.969.969,0,1,1-1.51,1.215A27.28,27.28,0,0,0,1.836,17a.97.97,0,0,1-.867.534" transform="translate(0)" fill="#fff"/><path d="M31.639,83.2a23.722,23.722,0,0,1-18.352-8.655.97.97,0,0,1,1.5-1.235,21.788,21.788,0,0,0,16.857,7.951c.28,0,.558-.006.836-.016a.97.97,0,0,1,.068,1.939c-.3.01-.6.016-.9.016" transform="translate(-5.409 -30.202)" fill="#fff"/><path d="M6.109,77.215a.971.971,0,0,1-.753-.357,3.673,3.673,0,0,1,5.7-4.637.969.969,0,1,1-1.5,1.224,1.738,1.738,0,0,0-2.441-.25,1.731,1.731,0,0,0-.25,2.438.97.97,0,0,1-.752,1.582" transform="translate(-1.876 -29.337)" fill="#fff"/><path d="M28.53,87.3A29.1,29.1,0,0,1,5.769,76.4a.969.969,0,0,1,1.51-1.217A27.28,27.28,0,0,0,52.925,70.3a.97.97,0,1,1,1.734.868A29.08,29.08,0,0,1,28.53,87.3" transform="translate(-2.299 -28.881)" fill="#fff"/><path d="M31.118,55.517A19.312,19.312,0,1,1,50.43,36.206,19.234,19.234,0,0,1,31.118,55.517M17.581,47.094a17.373,17.373,0,1,0-3.836-10.888,17.306,17.306,0,0,0,3.836,10.888" transform="translate(-4.888 -6.993)" fill="#fff"/></g></svg>