<svg xmlns="http://www.w3.org/2000/svg" width="25.589" height="25.589" viewBox="0 0 25.589 25.589"><path d="M201.825,14.342A12.795,12.795,0,1,1,189.031,1.547a12.794,12.794,0,0,1,12.795,12.795" transform="translate(-176.236 -1.547)" fill="#fff"/><path d="M195.926,12.65h-6.4a2.672,2.672,0,0,0-2.668,2.668v6.4a2.672,2.672,0,0,0,2.668,2.668h6.4a2.672,2.672,0,0,0,2.668-2.668v-6.4a2.672,2.672,0,0,0-2.668-2.668m1.6,9.072a1.6,1.6,0,0,1-1.6,1.6h-6.4a1.6,1.6,0,0,1-1.6-1.6v-6.4a1.6,1.6,0,0,1,1.6-1.6h6.4a1.6,1.6,0,0,1,1.6,1.6Z" transform="translate(-179.93 -5.41)" fill="#009224"/><path d="M194.432,17.559a2.668,2.668,0,1,0,2.668,2.668,2.672,2.672,0,0,0-2.668-2.668m0,4.269a1.6,1.6,0,1,1,1.6-1.6,1.6,1.6,0,0,1-1.6,1.6" transform="translate(-181.638 -7.117)" fill="#009224"/><path d="M200.273,15.925a.634.634,0,1,0,.633.633.633.633,0,0,0-.633-.633" transform="translate(-184.378 -6.549)" fill="#009224"/></svg>