<svg xmlns="http://www.w3.org/2000/svg" width="25.589" height="25.589" viewBox="0 0 25.589 25.589"><path d="M244.819,14.342A12.795,12.795,0,1,1,232.025,1.547a12.794,12.794,0,0,1,12.795,12.795" transform="translate(-219.23 -1.547)" fill="#fff"/><path d="M231.65,13.168a1.306,1.306,0,1,0,1.3,1.306,1.3,1.3,0,0,0-1.3-1.306M230.35,23.6h2.6V16.419h-2.6Zm8.711-7.183c-1.934,0-2.192,1.163-2.192,1.163l0-1.154h-2.608V23.6h2.608V19.689s0-1.314,1.109-1.314c.624,0,.848.584.848,1.314V23.6h2.608V19.689c0-2.042-.888-3.27-2.375-3.27" transform="translate(-223.098 -5.59)" fill="#009224"/></svg>